# xmcd
#
# Track frame offsets:
#	150
#	13976
#	19667
#	34324
#	42856
#	49925
#	65927
#	75430
#	89630
#
# Disc length: 1466 seconds
#
# Revision: 1
# Processed by: cddbd v1.5.2PL0 Copyright (c) Steve Scherf et al.
# Submitted via: audiograbber 1.83.01
#
DISCID=7705b809
DTITLE=Appaloosa - Country Music
DYEAR=1995
DGENRE=Country
TTITLE0=Rocky Top
TTITLE1=Long legged Hannah
TTITLE2=Mountain Music
TTITLE3=Song of the South
TTITLE4=Chattahoochee
TTITLE5=Dixieland Delight
TTITLE6=Redneck Girl
TTITLE7=Orange Blossom Special
TTITLE8=The Devil went down to Georgia
EXTD=
EXTT0=
EXTT1=
EXTT2=
EXTT3=
EXTT4=
EXTT5=
EXTT6=
EXTT7=
EXTT8=
PLAYORDER=
